<?xml version="1.0" standalone="no"?>
<!DOCTYPE svg PUBLIC "-//W3C//DTD SVG 1.1//EN" "http://www.w3.org/Graphics/SVG/1.1/DTD/svg11.dtd" >
<svg xmlns="http://www.w3.org/2000/svg">
<metadata>
This is a custom SVG webfont generated by Font Squirrel.
Copyright   :  Copyright 2006 Berthold LLC All Rights Reserved This font software computer program is the property of Berthold You may not reproduce modify adapt translate alter nor create derivative works of the font software You may not reverse engineer decompile decrypt disassemble nor seek to discover the source code of the font software
Designer    : Various Berthold designers including Guenter Gerhard Lange
Foundry     : Berthold
Foundry URL : httpwwwbertholdtypescom
</metadata>
<defs>
<font id="Akzidenz-GroteskStdRgCn" horiz-adv-x="724" >
<font-face units-per-em="2048" ascent="1536" descent="-512" />
<missing-glyph horiz-adv-x="425" />
<glyph unicode=" "  horiz-adv-x="425" />
<glyph unicode="&#x09;" horiz-adv-x="425" />
<glyph unicode="&#xa0;" horiz-adv-x="425" />
<glyph unicode="!" horiz-adv-x="425" d="M168 0v242h176v-242h-176zM168 991v455h176v-455l-45 -598h-90z" />
<glyph unicode="&#x22;" horiz-adv-x="557" d="M59 1518h158l-47 -592h-59zM338 1518h160l-49 -592h-58z" />
<glyph unicode="#" horiz-adv-x="1101" d="M31 471v158h256l20 219h-248v158h267l39 440h163l-41 -440h179l43 440h161l-43 -440h242v-158h-254l-20 -219h247v-158h-264l-43 -471h-162l43 471h-178l-45 -471h-162l43 471h-243zM451 629h180l20 219h-180z" />
<glyph unicode="$" horiz-adv-x="811" d="M59 352v148h168v-140q0 -82 20.5 -131t41 -62t63.5 -30v535l-86 90q-63 68 -92 104.5t-53.5 106t-24.5 162.5q0 205 117 282q61 39 139 47v172h119v-172l21 -2q23 -2 39 -6t39.5 -11t46 -20.5t40.5 -33.5q33 -33 49.5 -82t19.5 -85t3 -96v-110h-164v80q0 98 -20.5 145 t-75.5 60v-488l96 -104q72 -76 104.5 -119t61.5 -114.5t29 -155.5q0 -90 -30 -157t-64.5 -99.5t-85 -54t-71 -24.5t-40.5 -5v-175h-117v175q-121 6 -207 90.5t-86 279.5zM266 1143q0 -121 86 -207v367q-86 -35 -86 -160zM471 137q113 37 113 187q0 106 -113 219v-406z" />
<glyph unicode="%" horiz-adv-x="1280" d="M45 811v371q0 41 1 66.5t12.5 70.5t32 70.5t63.5 47t102 21.5q57 0 98 -18.5t62.5 -45t34 -66.5t15.5 -71.5t3 -74.5v-389q0 -260 -209 -261q-74 0 -120 21.5t-65.5 68t-24.5 85t-5 104.5zM180 825q0 -74 3 -101.5t18.5 -47t52.5 -19.5q51 0 63.5 30t12.5 128v356 q0 51 -1 73t-8.5 46.5t-22.5 32.5t-42 8q-49 0 -62.5 -33.5t-13.5 -115.5v-357zM238 0l710 1446h94l-704 -1446h-100zM813 268v371q0 41 1 66.5t12.5 70.5t32 70.5t63.5 47t102 21.5q57 0 98 -18t62.5 -45t34 -67t15.5 -71.5t3 -74.5v-389q0 -260 -209 -260q-74 0 -120 21.5 t-65.5 67.5t-24.5 84.5t-5 104.5zM948 283q0 -74 3 -101.5t18.5 -47t52.5 -19.5q51 0 63.5 29.5t12.5 127.5v357q0 51 -1 72.5t-8.5 46t-22.5 32.5t-42 8q-49 0 -62.5 -33.5t-13.5 -115.5v-356z" />
<glyph unicode="&#x26;" horiz-adv-x="937" d="M43 311q0 215 215 416q-94 197 -94 303q0 33 10 69t34.5 78t77 69.5t126.5 27.5q100 0 177 -61.5t77 -174.5q0 -96 -74 -202q-35 -51 -131 -148q47 -98 182 -321q23 47 27 57q23 72 22 188v15h158q2 -10 2 -33q0 -70 -25.5 -179.5t-81.5 -199.5q41 -70 134 -70h16v-153 q-4 0 -14.5 -1t-18.5 -1q-121 0 -219 96l-37 -31q-90 -76 -235 -75q-147 0 -237.5 92t-90.5 239zM215 311q0 -70 37 -128t125 -58q96 0 166 86q-78 106 -209 362q-119 -90 -119 -262zM324 1026q0 -70 67 -190l29 28q94 94 94 170q0 55 -31.5 79t-64.5 24q-94 0 -94 -111z " />
<glyph unicode="'" horiz-adv-x="278" d="M59 1518h158l-47 -592h-59z" />
<glyph unicode="(" horiz-adv-x="598" d="M141 569q0 434 340 901l88 -77q-246 -346 -245 -805q0 -539 256 -864l-82 -74q-72 74 -160 233q-197 356 -197 686z" />
<glyph unicode=")" horiz-adv-x="598" d="M16 -276q256 348 256 868q0 459 -245 801l88 77q342 -449 342 -901q0 -326 -199 -686q-88 -158 -158 -233z" />
<glyph unicode="*" horiz-adv-x="679" d="M53 1194l33 111l193 -54v201h116v-205l195 68l39 -107l-197 -71l121 -164l-92 -70l-125 164l-111 -166l-94 70l111 166z" />
<glyph unicode="+" horiz-adv-x="1142" d="M170 535v149h317v348h170v-348h316v-149h-316v-347h-170v347h-317z" />
<glyph unicode="," horiz-adv-x="342" d="M82 0v242h176v-250q0 -115 -38 -183.5t-138 -89.5v107q78 18 78 137v37h-78z" />
<glyph unicode="-" horiz-adv-x="544" d="M51 518v160h443v-160h-443z" />
<glyph unicode="." horiz-adv-x="342" d="M84 0v242h174v-242h-174z" />
<glyph unicode="/" horiz-adv-x="598" d="M10 0l412 1446h166l-406 -1446h-172z" />
<glyph unicode="0" horiz-adv-x="768" d="M57 424v614q0 150 23.5 224.5t73.5 121.5q82 80 229 80q145 0 225 -78q51 -49 76 -117.5t25 -199.5v-633q0 -244 -54 -327q-80 -127 -266 -127q-168 0 -254 92q-78 84 -78 350zM236 391q0 -135 26.5 -192.5t118.5 -57.5q94 0 120.5 53.5t26.5 161.5v711 q0 129 -29.5 182.5t-113.5 53.5q-51 0 -84 -20.5t-46 -60.5t-16 -71t-3 -80v-680z" />
<glyph unicode="1" horiz-adv-x="768" d="M76 1135v137q139 0 202.5 34.5t65.5 139.5h152v-1446h-181v1135h-239z" />
<glyph unicode="2" horiz-adv-x="768" d="M70 0v174l299 506q94 160 119.5 233.5t25.5 196.5q0 96 -30.5 143t-104.5 47q-127 0 -127 -190v-180h-166v200q0 334 291 334q88 0 151.5 -33.5t95 -91t46 -119t14.5 -133.5q0 -209 -135 -434l-297 -497h450v-156h-632z" />
<glyph unicode="3" horiz-adv-x="768" d="M61 328v104h164v-125q0 -168 144 -168q68 0 103.5 36t41.5 71t6 86v145q0 115 -45 160t-139 45q-39 0 -55 -2v162q41 -2 51 -2q86 0 131 43t45 166q0 145 -23.5 201.5t-107.5 56.5q-72 0 -99.5 -52.5t-27.5 -150.5v-68h-162v70q0 164 41 237q68 121 254 121 q160 0 233 -104q63 -82 64 -275q0 -156 -32 -225t-136 -90q106 -23 147 -90.5t41 -204.5v-129q0 -186 -88 -276q-88 -88 -233 -88q-86 0 -148.5 25.5t-94.5 59t-50 87t-21.5 89.5t-3.5 85z" />
<glyph unicode="4" horiz-adv-x="768" d="M43 324v198l293 924h252v-969h127v-153h-127v-324h-170v324h-375zM178 477h240l8 807z" />
<glyph unicode="5" horiz-adv-x="768" d="M57 344v80h172v-76q0 -117 35 -161t111 -44q88 0 117.5 60.5t29.5 191.5v230q0 59 -7 99t-39 75t-91 35q-70 0 -95.5 -45.5t-25.5 -124.5h-164q18 606 23 782h559v-156h-395l-11 -360q63 63 175 63q86 0 149 -47q59 -43 78.5 -118.5t19.5 -231.5v-236q0 -172 -67 -262 q-88 -117 -262 -116q-152 0 -236 92q-43 49 -59.5 101t-16.5 169z" />
<glyph unicode="6" horiz-adv-x="768" d="M70 369v729q0 205 80.5 285.5t226.5 80.5q305 0 305 -303v-59h-168v55q0 76 -30.5 112t-102.5 36q-47 0 -78 -17.5t-44 -46.5t-17 -50.5t-4 -41.5v-307q86 104 200 104q98 0 168 -61q49 -43 71.5 -108.5t22.5 -194.5v-185q0 -240 -69 -315q-92 -100 -248 -100 q-100 0 -165.5 28.5t-96.5 88t-41 120t-10 150.5zM240 326q0 -186 145 -187q88 0 119 70q20 45 20 250v116q0 117 -30.5 168.5t-114.5 51.5q-78 0 -108.5 -53.5t-30.5 -166.5v-249z" />
<glyph unicode="7" horiz-adv-x="768" d="M68 1286v160h630v-133q-84 -158 -147 -371q-72 -240 -98.5 -444.5t-32.5 -497.5h-197q16 502 166 940q33 98 129 346h-450z" />
<glyph unicode="8" horiz-adv-x="768" d="M63 342v104q0 145 34 222t134 102q-37 8 -54 15.5t-44 34t-39 85t-12 148.5v71q0 340 305 340q82 0 141.5 -22.5t90 -54t48 -81t21.5 -86t4 -85.5v-80q0 -158 -39 -212.5t-116 -72.5q61 -12 102 -55q37 -39 50 -95.5t13 -164.5v-43q-2 -193 -35.5 -275t-136.5 -125 q-74 -31 -155 -30q-98 0 -176 43q-70 39 -103 110.5t-33 206.5zM242 328q0 -184 141 -185q74 0 108.5 47.5t34.5 153.5v156q0 20 -4 42.5t-16 55.5t-43 53.5t-76 20.5q-41 0 -70.5 -15.5t-44 -34t-21.5 -50t-8 -51t-1 -50.5v-143zM248 1024q0 -82 29.5 -130t113.5 -48 q131 0 131 192v136q0 147 -131 147q-82 0 -112.5 -51t-30.5 -168v-78z" />
<glyph unicode="9" horiz-adv-x="768" d="M61 885v194q0 80 10.5 138.5t39 120t95 94t167.5 32.5q174 0 245.5 -92t71.5 -256v-756q0 -197 -77.5 -287.5t-237.5 -90.5q-147 0 -232 88q-31 33 -47 74.5t-18 69.5t-2 79v88h166v-92q0 -74 31.5 -111t105.5 -37q59 0 92 37t40 79t7 103v263q-96 -90 -209 -91 q-129 0 -200 99q-48 70 -48 254zM233 870q0 -182 146 -182q141 0 141 174v254q0 190 -139 191q-147 0 -148 -215v-222z" />
<glyph unicode=":" horiz-adv-x="425" d="M168 0v242h176v-242h-176zM168 735v242h176v-242h-176z" />
<glyph unicode=";" horiz-adv-x="425" d="M168 0v242h174v-250q0 -117 -36 -184.5t-138 -88.5v107q78 18 78 143v31h-78zM168 745v232h176v-232h-176z" />
<glyph unicode="&#x3c;" horiz-adv-x="1144" d="M180 553v160l733 399v-172l-571 -301l571 -297v-186z" />
<glyph unicode="=" horiz-adv-x="1144" d="M174 371v147h797v-147h-797zM174 719v147h797v-147h-797z" />
<glyph unicode="&#x3e;" horiz-adv-x="1144" d="M231 156v170l572 301l-572 299v184l734 -395v-160z" />
<glyph unicode="?" horiz-adv-x="811" d="M117 954v205q0 109 33 174q35 68 111.5 101.5t158.5 33.5q164 0 240.5 -92t76.5 -221v-47q0 -121 -18.5 -178.5t-83.5 -161.5l-45 -72q-45 -72 -56.5 -110.5t-11.5 -91.5v-107h-135v123q0 78 16.5 138.5t79.5 168.5l17 29q27 47 38 71.5t18 73.5t7 131v35q0 70 -41 109 t-108 39q-137 0 -138 -160v-191h-159zM367 0v242h176v-242h-176z" />
<glyph unicode="@" horiz-adv-x="1671" d="M92 473q0 414 261 700.5t636 286.5q279 0 441.5 -158.5t162.5 -429.5q0 -174 -66.5 -343t-176 -277.5t-224.5 -108.5q-150 0 -157 174q-129 -172 -285 -172q-115 0 -183.5 90.5t-68.5 241.5q0 225 130 404.5t294 179.5q160 0 223 -174l31 127h133l-117 -539 q-12 -66 -12 -125q0 -84 57 -84q109 0 206.5 199t97.5 393q0 236 -129 366t-363 130q-313 0 -538.5 -258t-225.5 -627q0 -274 174 -445t453 -171q172 0 348 80.5t309 224.5l64 -84q-326 -326 -727 -326q-340 0 -544 201.5t-204 523.5zM592 483q0 -98 37 -151t104 -53 q117 0 206 135t89 313q0 90 -43 145.5t-115 55.5q-109 0 -193.5 -135.5t-84.5 -309.5z" />
<glyph unicode="A" horiz-adv-x="811" d="M0 0l311 1446h181l319 -1446h-188l-52 279h-335l-50 -279h-186zM266 434h275l-142 744z" />
<glyph unicode="B" horiz-adv-x="894" d="M102 0v1446h359q102 0 173 -30t105.5 -81t48 -101t13.5 -108q0 -346 -232 -346q39 0 75 -11t81 -42t71.5 -103.5t26.5 -179.5q0 -141 -20.5 -216.5t-69.5 -127.5q-55 -59 -128 -79.5t-234 -20.5h-269zM283 156h143q121 0 170 53t49 199q0 164 -46 226t-187 62h-129v-540z M283 852h125q41 0 68.5 3t58 15.5t48 35t30 63.5t12.5 100q0 74 -16.5 120t-50.5 65.5t-63.5 24.5t-76.5 5h-135v-432z" />
<glyph unicode="C" horiz-adv-x="854" d="M90 414v569q0 262 78 367q88 119 285 118q150 0 241 -92q41 -43 58.5 -107.5t17.5 -183.5v-94h-168v137q0 188 -149 189q-135 0 -164 -127q-20 -88 -21 -268v-363q0 -297 35 -356q41 -72 146 -72q45 0 77.5 19.5t48 44t24.5 67.5t10 69.5t1 69.5v109h168v-156 q0 -281 -180 -350q-68 -25 -160 -24.5t-159.5 31t-103.5 73.5t-55.5 106.5t-24.5 113t-5 110.5z" />
<glyph unicode="D" horiz-adv-x="894" d="M102 0v1446h273q92 0 140 -4t111.5 -28.5t104.5 -76.5q49 -61 61.5 -150t12.5 -360v-329q0 -264 -62 -367q-37 -61 -102.5 -92t-116.5 -35t-153 -4h-269zM283 160h143q133 0 168 73.5t35 317.5v405q0 84 -2 124t-13.5 88.5t-34 66.5t-64.5 31.5t-105 13.5h-127v-1120z " />
<glyph unicode="E" horiz-adv-x="811" d="M102 0v1446h637v-162h-456v-430h399v-164h-399v-528h471v-162h-652z" />
<glyph unicode="F" horiz-adv-x="768" d="M102 0v1446h637v-162h-454v-426h395v-158h-395v-700h-183z" />
<glyph unicode="G" horiz-adv-x="894" d="M90 520v465q0 238 75 360.5t290 122.5q111 0 182.5 -26.5t104 -77.5t44 -100.5t11.5 -120.5v-139h-170v131q0 182 -164 182q-131 0 -162 -92t-31 -379v-234q0 -338 27 -399q41 -86 145 -86q76 0 131 47q33 29 50.5 83t17.5 187v148h-213v156h381v-748h-152v100 q-111 -121 -258 -120q-219 0 -280 198q-29 98 -29 342z" />
<glyph unicode="H" horiz-adv-x="894" d="M102 0v1446h181v-615h329v615h181v-1446h-181v674h-329v-674h-181z" />
<glyph unicode="I" horiz-adv-x="382" d="M102 0v1446h179v-1446h-179z" />
<glyph unicode="J" horiz-adv-x="811" d="M39 360v76h174v-131q0 -172 154 -172q90 0 129 54.5t39 179.5v1079h180v-1059q0 -68 -2 -105.5t-18.5 -93t-49.5 -96.5q-94 -115 -287 -115q-129 0 -211 66q-68 53 -88 128.5t-20 188.5z" />
<glyph unicode="K" horiz-adv-x="854" d="M102 0v1446h179v-623l372 623h201l-342 -545l342 -901h-201l-256 739l-116 -174v-565h-179z" />
<glyph unicode="L" d="M102 0v1446h185v-1284h424v-162h-609z" />
<glyph unicode="M" horiz-adv-x="1150" d="M102 0v1446h271l202 -1290l199 1290h275v-1446h-166l24 1309l-215 -1309h-227l-215 1309q25 -1190 29 -1309h-177z" />
<glyph unicode="N" horiz-adv-x="894" d="M102 0v1446h248l293 -1266q-20 1075 -25 1266h175v-1446h-254l-283 1253q16 -858 25 -1253h-179z" />
<glyph unicode="O" horiz-adv-x="894" d="M90 516v481q0 248 82 353q94 119 293 118q195 0 267.5 -111.5t72.5 -340.5v-410q0 -356 -73 -491t-296 -135q-96 0 -161.5 27.5t-101.5 67.5t-55.5 116.5t-23.5 144t-4 180.5zM274 444q0 -154 19 -211q35 -104 153 -104q109 0 142 85t33 318v476q0 63 -1.5 95t-9.5 81 t-25.5 72.5t-50 42t-81.5 18.5q-104 0 -141.5 -74t-37.5 -235v-564z" />
<glyph unicode="P" horiz-adv-x="854" d="M102 0v1446h375q166 0 244 -96q49 -61 62.5 -134t13.5 -204q0 -236 -76 -328q-74 -90 -287 -90h-151v-594h-181zM283 752h153q68 0 106 15t55 57t20.5 81t3.5 123q0 158 -44.5 206t-199.5 48h-94v-530z" />
<glyph unicode="Q" horiz-adv-x="894" d="M90 434v578q0 78 8 140t33 123.5t65 101.5t108.5 65.5t162.5 25.5q92 0 157.5 -27.5t101.5 -68.5t55.5 -110.5t24.5 -130t5 -148.5v-340q0 -123 -4 -196.5t-18.5 -170t-50.5 -158t-93 -93.5l178 -152l-100 -104l-219 213q-25 -2 -68 -2q-92 0 -156.5 24.5t-101.5 63 t-57.5 102t-25.5 122t-5 142.5zM274 387q0 -47 2.5 -74.5t11.5 -67.5t26.5 -62.5t51 -39t83.5 -16.5q113 0 144.5 85t31.5 316v496q0 150 -33 221.5t-139 71.5q-94 0 -136.5 -67.5t-42.5 -225.5v-637z" />
<glyph unicode="R" horiz-adv-x="894" d="M102 0v1446h316q197 0 290 -82t93 -320q0 -346 -195 -389l258 -655h-188l-246 635h-149v-635h-179zM281 776h127q135 0 174 54.5t39 220.5q0 139 -47.5 185t-163.5 46h-129v-506z" />
<glyph unicode="S" horiz-adv-x="811" d="M55 340v160h170v-133q0 -109 37 -171.5t141 -62.5q84 0 133.5 48t49.5 132q0 55 -20.5 103.5t-42 74t-72.5 78.5l-195 201q-92 96 -129 170t-37 193q0 336 336 335q244 0 293 -188q12 -49 12 -168v-92h-160v92q0 92 -30.5 147.5t-124.5 55.5q-152 0 -152 -174 q0 -27 3 -49.5t13.5 -44t17.5 -36t25.5 -36t24.5 -29.5t30.5 -32.5t29.5 -30.5l227 -242q125 -133 125 -313q0 -199 -131 -287q-90 -61 -226 -61q-168 0 -258 91t-90 269z" />
<glyph unicode="T" horiz-adv-x="768" d="M20 1284v162h728v-162h-275v-1284h-178v1284h-275z" />
<glyph unicode="U" horiz-adv-x="894" d="M96 459v987h183v-1096q0 -104 36.5 -159.5t137.5 -55.5q86 0 124.5 43t38.5 160v1108h183v-975q0 -145 -6.5 -208.5t-28.5 -115.5q-72 -168 -315 -167q-246 0 -320 157q-20 47 -26.5 102.5t-6.5 219.5z" />
<glyph unicode="V" horiz-adv-x="768" d="M0 1446h184l201 -1268l201 1268h182l-268 -1446h-230z" />
<glyph unicode="W" horiz-adv-x="1280" d="M0 1446h178l178 -1268l170 1268h232l166 -1268l180 1268h176l-244 -1446h-237l-158 1198l-164 -1198h-241z" />
<glyph unicode="X" horiz-adv-x="811" d="M0 0l276 788l-258 658h199l174 -555l162 555h192l-237 -658l303 -788h-195l-221 627l-207 -627h-188z" />
<glyph unicode="Y" horiz-adv-x="811" d="M0 1446h190l216 -723l215 723h190l-317 -877v-569h-187v569z" />
<glyph unicode="Z" horiz-adv-x="768" d="M45 0v147l475 1137h-407v162h610v-137l-483 -1149h483v-160h-678z" />
<glyph unicode="[" horiz-adv-x="641" d="M199 -350v1820h401v-129h-229v-1560h229v-131h-401z" />
<glyph unicode="\" horiz-adv-x="598" d="M10 1446h166l410 -1446h-170z" />
<glyph unicode="]" horiz-adv-x="641" d="M39 -219h231v1560h-231v129h403v-1820h-403v131z" />
<glyph unicode="^" horiz-adv-x="1144" d="M127 733l362 713h164l363 -713h-182l-263 555l-260 -555h-184z" />
<glyph unicode="_" horiz-adv-x="1024" d="M-20 -301h1064v-121h-1064v121z" />
<glyph unicode="`" horiz-adv-x="468" d="M68 1374h223l108 -221h-133z" />
<glyph unicode="a" d="M39 248q0 94 37 157.5t87 96.5t143 96.5t165 134.5v35q0 143 -125 143q-123 0 -123 -129v-94h-145v60q0 53 2 79.5t14 63.5t37 67q72 84 231 84q133 0 205 -71q66 -66 66 -209v-545q0 -106 8 -150t41 -67h-201v123q-68 -141 -213 -141q-68 0 -123 32q-106 64 -106 234z M207 250q0 -147 110 -148q68 0 115 60q39 51 39 170v252q-35 -37 -112.5 -90.5t-114.5 -105.5t-37 -138z" />
<glyph unicode="b" horiz-adv-x="768" d="M90 0v1446h162v-504q80 100 201 100q86 0 137 -39.5t72 -87.5q33 -76 32 -305v-229q0 -72 -4 -123t-19.5 -106.5t-41 -90t-70.5 -57t-108 -22.5q-121 0 -207 108v-90h-154zM252 342q0 -117 22 -160q41 -74 132 -73q31 0 51 8t33.5 29.5t21.5 43t11 65.5t4 78t1 97v139 q0 205 -22.5 280t-108.5 75q-63 0 -104 -48.5t-41 -134.5v-399z" />
<glyph unicode="c" d="M74 467v121q0 240 58 347t239 107q170 0 227 -82.5t57 -248.5v-58h-155v54q0 53 -3 83.5t-15.5 64.5t-39 48.5t-71.5 14.5q-80 0 -105.5 -58.5t-25.5 -232.5v-273q0 -53 1 -78.5t7 -63.5t19.5 -55.5t39 -31.5t62.5 -14q80 0 105.5 60t25.5 210h155v-27 q0 -203 -66.5 -287.5t-232.5 -84.5q-188 0 -245 129q-37 77 -37 356z" />
<glyph unicode="d" horiz-adv-x="768" d="M74 481v137q0 225 57 324.5t201 99.5q111 0 180 -98v502h166v-1446h-154v109q-72 -127 -215 -127q-145 0 -190 113.5t-45 385.5zM238 356q0 -55 4 -92t16 -75.5t41 -58t74 -19.5q47 0 76.5 22.5t44 75.5t18.5 111.5t4 160.5v137q0 66 -3 108t-16.5 91t-44 73.5 t-79.5 24.5q-47 0 -76 -22.5t-41 -75.5t-15 -100t-3 -133v-228z" />
<glyph unicode="e" d="M74 455v170q0 82 4 136t21.5 112.5t47 91t84 54t129.5 21.5q291 0 291 -313v-246h-413v-114q0 -66 3 -101t15 -75.5t41 -58t76 -17.5q63 0 94 41t31 141v20h153v-41q0 -47 -9 -90t-35.5 -93t-88 -80.5t-151.5 -30.5q-186 0 -256 137q-23 49 -30 102.5t-7 233.5zM240 612 h258v93q0 68 -6.5 106.5t-36 71t-86.5 32.5q-80 0 -104.5 -55t-24.5 -180v-68z" />
<glyph unicode="f" horiz-adv-x="468" d="M10 901v123h121v158q0 53 7 92t29.5 84t75 69.5t130.5 24.5q53 0 86 -12v-142q-43 12 -66 13q-37 0 -58.5 -14.5t-29.5 -46t-10 -55.5t-2 -69v-102h166v-123h-166v-901h-162v901h-121z" />
<glyph unicode="g" horiz-adv-x="768" d="M72 365v311q0 74 9 131t34.5 114.5t79 89t133.5 31.5q127 0 198 -108v90h152v-1083q0 -156 -91 -220.5t-227 -64.5q-127 0 -202.5 67.5t-75.5 180.5v14h151q0 -131 136 -131q82 0 113.5 44t31.5 126v149l-18 -24q-66 -88 -189 -88q-121 0 -182 90q-53 76 -53 281z M240 350q0 -51 3 -84t15 -71.5t40 -57t73 -18.5q147 0 147 235v281q0 72 -4 118t-18.5 90t-45 64.5t-77.5 20.5q-37 0 -62.5 -16.5t-39 -41t-20.5 -67.5t-9 -80t-2 -96v-277z" />
<glyph unicode="h" horiz-adv-x="768" d="M90 0v1446h162v-514q76 111 207 110q59 0 102 -21.5t65.5 -52t35 -79.5t14.5 -85t2 -87v-717h-162v649q0 59 -1 92t-8 72t-20.5 56.5t-37 30.5t-60.5 13q-47 0 -76.5 -19.5t-42 -62.5t-15.5 -78.5t-3 -99.5v-653h-162z" />
<glyph unicode="i" horiz-adv-x="342" d="M90 0v1024h162v-1024h-162zM90 1204v211h162v-211h-162z" />
<glyph unicode="j" horiz-adv-x="342" d="M-96 -207q6 0 24.5 -1t30.5 -1q88 0 109.5 35t21.5 129v1069h162v-1061q0 -78 -8 -125t-35 -94t-85 -67.5t-153 -20.5q-12 0 -36.5 1t-30.5 1v135zM90 1202v213h162v-213h-162z" />
<glyph unicode="k" d="M90 0v1446h162v-887l303 465h188l-276 -397l262 -627h-174l-199 475l-104 -143v-332h-162z" />
<glyph unicode="l" horiz-adv-x="342" d="M88 0v1446h166v-1446h-166z" />
<glyph unicode="m" horiz-adv-x="1193" d="M90 0v1024h154v-100q74 119 219 118q139 0 203 -118q86 119 211 118q119 0 174 -78.5t55 -207.5v-756h-168v709q0 104 -25.5 155t-99.5 51q-133 0 -133 -196v-719h-166v741q0 174 -123 174q-47 0 -75.5 -16t-42 -55t-16.5 -75t-3 -101v-668h-164z" />
<glyph unicode="n" horiz-adv-x="768" d="M90 0v1024h156v-94q82 113 221 112q123 0 176 -88q23 -37 29 -84t6 -149v-721h-166v750q0 164 -121 163q-137 0 -137 -198v-715h-164z" />
<glyph unicode="o" d="M74 305v338q0 205 60.5 302t236.5 97q78 0 133 -24.5t82.5 -57t43 -85t18.5 -87t3 -86.5v-309q0 -66 -2 -100.5t-9 -92t-25.5 -89t-49 -65.5t-83 -49t-124.5 -15q-284 -1 -284 323zM246 389q0 -164 18.5 -222t93.5 -58q29 0 50.5 9t35 31.5t21.5 45t11 66.5t4 77t1 94 v291q0 51 -4 84t-31.5 66.5t-78.5 33.5q-74 0 -97.5 -54t-23.5 -177v-287z" />
<glyph unicode="p" horiz-adv-x="768" d="M90 -326v1350h164v-98q84 117 207 116q233 0 233 -335v-291q0 -76 -3 -125t-16 -114.5t-38 -102.5t-72 -64.5t-114 -27.5q-127 0 -193 104v-412h-168zM260 315q0 -90 33 -150.5t104 -60.5q43 0 71 21.5t38 62.5t13 70t3 72v381q0 201 -119 200q-143 0 -143 -254v-342z " />
<glyph unicode="q" horiz-adv-x="768" d="M74 387v315q0 158 63.5 249t179.5 91q125 0 203 -127v109h158v-1350h-162v428q-76 -121 -199 -120q-66 0 -111.5 25.5t-71 61t-40 94t-17.5 107.5t-3 117zM244 338q0 -43 3 -74t13 -70.5t38 -61t71 -21.5q51 0 82.5 23.5t45 69.5t16.5 80.5t3 88.5v284q0 43 -1 67 t-9 64.5t-22.5 63t-44 41t-72.5 18.5q-123 0 -123 -200v-373z" />
<glyph unicode="r" horiz-adv-x="512" d="M74 0v1024h157v-193q35 92 98.5 151.5t151.5 59.5h27v-172h-23q-80 0 -132 -23.5t-74.5 -70.5t-29.5 -92t-7 -113v-571h-168z" />
<glyph unicode="s" horiz-adv-x="641" d="M35 354h158v-82q0 -158 126 -157q53 0 86 34.5t33 88.5q0 43 -16 76.5t-32.5 51t-57.5 52.5l-127 110q-76 68 -109 119t-33 133q0 119 63.5 190.5t199.5 71.5q254 0 254 -262v-57h-146v33q0 156 -108 155q-41 0 -75 -23.5t-34 -88.5q0 -16 4 -31.5t13 -31.5l16 -25 q6 -10 22.5 -25.5t22.5 -22t25.5 -21.5t23.5 -19l117 -97q74 -61 108.5 -120.5t34.5 -137.5q0 -139 -79 -212.5t-216 -73.5q-158 0 -223 94q-31 45 -40 101t-11 177z" />
<glyph unicode="t" horiz-adv-x="468" d="M12 901v123h127v274h164v-274h152v-123h-152v-661q0 -55 18.5 -87t75.5 -32q29 0 58 8v-133q-43 -14 -93 -14q-143 0 -185 59t-42 197v663h-123z" />
<glyph unicode="u" horiz-adv-x="768" d="M90 332v692h164v-758q0 -94 39 -128t84 -34q49 0 79.5 24t42 67t14.5 71.5t3 71.5v686h162v-1024h-158v94q-88 -113 -219 -112q-78 0 -133 45q-51 43 -64.5 107.5t-13.5 197.5z" />
<glyph unicode="v" horiz-adv-x="641" d="M0 1024h178l135 -840l150 840h176l-233 -1024h-187z" />
<glyph unicode="w" horiz-adv-x="1067" d="M0 1024h178l109 -877l133 877h221l133 -864l121 864h172l-201 -1024h-196l-140 862l-141 -862h-201z" />
<glyph unicode="x" horiz-adv-x="681" d="M0 0l246 549l-213 475h190l111 -336l123 336h184l-215 -475l256 -549h-186l-162 406l-154 -406h-180z" />
<glyph unicode="y" horiz-adv-x="681" d="M12 1024h176l162 -823l131 823h174l-200 -1020q-12 -68 -21.5 -102.5t-33 -88t-58.5 -85.5q-61 -61 -195 -62h-106v141q20 -2 61 -2q33 0 52.5 2.5t49 12.5t45 36.5t15.5 69.5q0 35 -20 125z" />
<glyph unicode="z" horiz-adv-x="598" d="M18 0v135l385 750h-333v139h505v-139l-382 -750h382v-135h-557z" />
<glyph unicode="{" d="M113 489v142q59 0 94 24q35 23 53.5 68t20.5 79t2 91v199q0 96 12 158.5t59 121t135 82.5q57 16 181 16v-137q-137 -8 -172 -67.5t-35 -206.5v-152q0 -66 -5 -111.5t-21.5 -98t-53.5 -87.5t-96 -47v-8q57 -10 95 -43t54.5 -83t21.5 -95t5 -109v-190q0 -127 38 -184.5 t169 -63.5v-137h-11q-104 0 -153 12q-137 33 -180 125t-43 254v170q0 63 -4.5 100t-18.5 82t-51 67.5t-96 28.5z" />
<glyph unicode="|" horiz-adv-x="468" d="M152 -512v2044h165v-2044h-165z" />
<glyph unicode="}" d="M57 -211q59 2 99.5 18.5t62 36t31.5 60.5t12 71.5t2 87.5v152q0 66 5 112t21.5 98t53.5 87t96 47v8q-57 10 -95 43t-54.5 83t-21.5 95.5t-5 108.5v190q0 127 -40 186.5t-167 61.5v138h11q104 0 153 -13q137 -33 180 -125t43 -254v-170q0 -63 4.5 -100t18.5 -82t51 -67.5 t96 -28.5v-141q-59 0 -94 -25q-35 -23 -53 -68t-20.5 -78.5t-2.5 -91.5v-198q0 -96 -12 -158.5t-59 -121t-135 -83.5q-57 -16 -181 -16v137z" />
<glyph unicode="~" horiz-adv-x="1157" d="M123 598q72 88 127 121t137 33q59 0 148 -35l112 -45q80 -33 125 -33q76 0 166 113l96 -119q-121 -154 -258 -154q-74 0 -188 47l-53 23q-92 39 -148 39q-49 0 -84 -22.5t-82 -88.5z" />
<glyph unicode="&#xa1;" horiz-adv-x="425" d="M84 0v457l43 596h92l39 -596v-457h-174zM84 1206v240h174v-240h-174z" />
<glyph unicode="&#xa2;" d="M74 307v338q0 121 17.5 200t55 117.5t71.5 53t93 26.5v134h109v-134q63 -10 109 -39.5t67.5 -61.5t34 -85t13.5 -84t1 -84v-31h-156v60q0 49 -2 75.5t-13 61.5t-38.5 51.5t-73 16.5t-73 -22.5t-37.5 -68t-13 -79t-3 -90.5v-353q0 -43 4 -73.5t15 -62.5t37.5 -48t65.5 -16 q131 0 131 192v74h156q0 -211 -47 -287t-178 -104v-152h-109v152q-39 6 -61.5 10t-60 24.5t-59 52t-39 92t-17.5 144.5z" />
<glyph unicode="&#xa3;" horiz-adv-x="937" d="M23 160q0 76 51 124t129 48q59 0 137 -49q4 41 4 67q0 102 -57 275h-203v153h152q-41 109 -56.5 181.5t-15.5 183.5q0 37 4 69.5t24.5 83t56.5 85t106.5 61t166.5 26.5q186 0 262 -118q55 -86 56 -301q0 -33 -2 -52h-179v29q0 63 -1 98t-9 79t-22.5 65.5t-42 37 t-68.5 15.5q-170 0 -170 -201q0 -152 84 -342h275v-153h-230q43 -164 43 -252q0 -100 -29 -174q16 -14 59.5 -34t76.5 -20q37 0 60.5 20.5t32.5 58.5t11 63.5t2 66.5q0 61 -6 123h166v-131q0 -55 -3 -97t-18.5 -96.5t-41 -89t-73.5 -59t-114 -24.5q-119 0 -235 98 q-82 -94 -199 -94q-80 0 -132 50t-52 126zM152 172q0 -16 12 -29.5t37 -13.5q55 0 86 51q-49 33 -82 33q-53 0 -53 -41z" />
<glyph unicode="&#xa4;" horiz-adv-x="1284" d="M84 223l147 152q-57 90 -78.5 160.5t-21.5 160.5q0 166 100 318l-143 151l107 113l143 -150q147 104 305 105q162 0 301 -105l148 152l108 -115l-145 -153q98 -160 98 -314q0 -174 -100 -323l145 -156l-108 -113l-148 156q-147 -106 -305 -106q-84 0 -147.5 22.5 t-151.5 83.5l-148 -151zM297 696q0 -164 100.5 -273.5t249.5 -109.5q143 0 240.5 109.5t97.5 269.5q0 166 -97 275.5t-244.5 109.5t-247 -109.5t-99.5 -271.5z" />
<glyph unicode="&#xa5;" horiz-adv-x="811" d="M0 1446h195l211 -733l212 733h193l-254 -711h178v-119h-221l-20 -55v-55h241v-117h-241v-389h-181v389h-239v117h239v55l-18 55h-221v119h176z" />
<glyph unicode="&#xa6;" horiz-adv-x="468" d="M152 389h165v-899h-165v899zM152 631v903h165v-903h-165z" />
<glyph unicode="&#xa7;" horiz-adv-x="854" d="M45 657q0 137 137 265q-80 86 -80 215q0 168 81 245.5t249 77.5q162 0 237.5 -71.5t75.5 -229.5q0 -53 -2 -80h-163v17q0 51 -3.5 81.5t-16.5 66.5t-47 53.5t-87 17.5q-154 0 -154 -160q0 -43 12.5 -73.5t43 -53t53 -35t68.5 -30.5l59 -25q78 -31 117 -50.5t86 -54 t66.5 -79.5t19.5 -107q0 -82 -32 -141.5t-99 -136.5q51 -59 70.5 -110.5t19.5 -131.5q0 -180 -90.5 -260t-268.5 -80q-172 0 -251.5 84t-79.5 254v78h178v-37q0 -111 32.5 -167t129.5 -56q84 0 128 45t44 129q0 70 -26 108.5t-87 73.5q-35 18 -151.5 68.5t-157.5 78.5 q-111 80 -111 211zM186 709q0 -66 56 -111q25 -20 89 -52t144 -66t103 -46q76 76 75 154q0 29 -12 53.5t-23.5 39.5t-43 33.5t-44 24.5t-53.5 22.5t-45 18.5q-55 23 -166 72q-80 -75 -80 -143z" />
<glyph unicode="&#xa8;" horiz-adv-x="468" d="M-4 1153v211h160v-211h-160zM313 1153v211h160v-211h-160z" />
<glyph unicode="&#xa9;" horiz-adv-x="1703" d="M123 723q0 305 213 517t516 212q305 0 517 -211t212 -516q0 -309 -211 -520t-520 -211q-303 0 -515 213t-212 516zM197 720.5q0 -274.5 190.5 -466t462.5 -191.5t464.5 191.5t192.5 466.5q0 279 -190.5 470t-464.5 191q-272 0 -463.5 -193.5t-191.5 -468zM596 541v354 q0 162 67.5 234.5t221.5 72.5q121 0 190 -53q43 -33 58.5 -84t15.5 -156v-67h-148v63q0 102 -24.5 139t-98 37t-101 -45t-27.5 -164v-309q0 -119 27.5 -164t101.5 -45q70 0 96 35t26 141v58h148v-60q0 -131 -25 -182q-51 -113 -239 -113q-145 0 -217 71t-72 237z" />
<glyph unicode="&#xaa;" horiz-adv-x="468" d="M31 967q0 37 6 63.5t27.5 51t33 35.5t54.5 41t57 42l70 53v25q0 74 -58 74q-61 0 -61 -70v-63h-109v75q0 164 174 164q176 0 176 -188v-357q0 -63 43 -110h-155v43q-49 -53 -109 -53q-76 0 -112.5 50t-36.5 124zM152 965q0 -72 57 -72q76 0 76 137v103q-12 -10 -50 -38 t-48.5 -39.5t-22.5 -35.5t-12 -55z" />
<glyph unicode="&#xab;" d="M45 487v177l287 319v-238l-152 -170l152 -172v-239zM379 487v177l285 319v-238l-152 -170l152 -172v-239z" />
<glyph unicode="&#xac;" horiz-adv-x="1144" d="M125 532v150h848v-528h-174v378h-674z" />
<glyph unicode="&#xad;" horiz-adv-x="544" d="M51 518v160h443v-160h-443z" />
<glyph unicode="&#xae;" horiz-adv-x="1703" d="M123 723q0 305 213 517t516 212q305 0 517 -211t212 -516q0 -309 -211 -520t-520 -211q-303 0 -515 213t-212 516zM197 720.5q0 -274.5 190.5 -466t462.5 -191.5t464.5 191.5t192.5 466.5q0 279 -190.5 470t-464.5 191q-272 0 -463.5 -193.5t-191.5 -468zM614 256v920 h195q180 0 242 -37q45 -29 64.5 -80t19.5 -146q0 -121 -33 -176t-123 -84l195 -397h-164l-181 387h-67v-387h-148zM762 760h47q109 0 143.5 29.5t34.5 123.5q0 92 -33 121q-25 23 -151 23h-41v-297z" />
<glyph unicode="&#xaf;" horiz-adv-x="468" d="M12 1178v131h445v-131h-445z" />
<glyph unicode="&#xb0;" d="M33 1216.5q0 137.5 96 233.5t233 96q139 0 234.5 -95t95.5 -234q0 -137 -96 -234.5t-233.5 -97.5t-233.5 97t-96 234.5zM201 1221q0 -66 48 -114t113 -48q68 0 115 47t47 114.5t-47 114.5t-114.5 47t-114.5 -46.5t-47 -114.5z" />
<glyph unicode="&#xb1;" horiz-adv-x="1144" d="M172 0v150h803v-150h-803zM172 606v150h317v348h168v-348h318v-150h-318v-346h-168v346h-317z" />
<glyph unicode="&#xb2;" horiz-adv-x="512" d="M45 543v123l182 309q6 12 21.5 37.5t20.5 33t15.5 27t13.5 27.5t8 24.5t6 29.5t3 31.5t2 39.5q0 104 -69 104q-63 0 -64 -96v-127h-129v123q0 229 197 229q86 0 141.5 -58.5t55.5 -185.5q0 -129 -82 -268l-170 -280h264v-123h-416z" />
<glyph unicode="&#xb3;" horiz-adv-x="512" d="M41 737v97h129v-82q0 -94 70 -95q51 0 66.5 32t15.5 102v40q0 63 -17.5 94t-81.5 31l-51 -2v127q31 -2 45 -2q47 0 70.5 22.5t23.5 90.5q0 53 -2 76.5t-17.5 44t-45.5 20.5q-61 0 -62 -104v-60h-129v80q0 209 195 209q197 0 196 -223q0 -104 -15 -146t-56 -67 q51 -20 67.5 -77.5t16.5 -188.5q0 -94 -52.5 -159t-150.5 -65q-215 0 -215 205z" />
<glyph unicode="&#xb4;" horiz-adv-x="468" d="M68 1153l108 221h223l-200 -221h-131z" />
<glyph unicode="&#xb5;" horiz-adv-x="768" d="M90 -326v1350h164v-709q0 -106 16 -147q27 -63 109 -64q72 0 104.5 55.5t32.5 178.5v686h162v-858q0 -70 10 -103.5t39 -62.5h-207v96q-45 -68 -76.5 -91t-76.5 -23q-59 0 -113 53v-361h-164z" />
<glyph unicode="&#xb6;" horiz-adv-x="1294" d="M176 1036q0 197 121 307q63 59 141 81t224 22h360v-129h-70v-1659h-118v1659h-248v-1659h-119v995q-291 74 -291 383z" />
<glyph unicode="&#xb7;" horiz-adv-x="342" d="M84 428v242h174v-242h-174z" />
<glyph unicode="&#xb8;" horiz-adv-x="468" d="M43 -391l27 49q76 -29 112 -29q43 0 81 29t38 74q0 33 -22.5 55.5t-57.5 22.5q-27 0 -61 -27l-43 16l76 224h57l-57 -162q49 20 92 20q59 0 100 -35.5t41 -95.5q0 -41 -27 -86q-63 -96 -196 -96q-72 0 -160 41z" />
<glyph unicode="&#xb9;" horiz-adv-x="512" d="M53 1229v112h39q123 0 123 95v10h121v-903h-139v686h-144z" />
<glyph unicode="&#xba;" horiz-adv-x="468" d="M47 1040v174q0 135 44 189.5t142 54.5q113 0 152 -60.5t39 -183.5v-159q0 -88 -15.5 -145.5t-46 -81t-57 -29.5t-65.5 -6q-117 0 -155 60t-38 187zM178 1016q0 -68 11.5 -94.5t43.5 -26.5q35 0 47.5 27.5t12.5 89.5v211q0 74 -11.5 101.5t-48 27.5t-46 -28t-9.5 -105 v-203z" />
<glyph unicode="&#xbb;" d="M61 164v239l152 172l-152 170v238l287 -319v-177zM393 164v239l152 172l-152 170v238l287 -319v-177z" />
<glyph unicode="&#xbc;" horiz-adv-x="1280" d="M53 1229v112h39q123 0 123 95v10h121v-903h-139v686h-144zM238 0l710 1446h94l-704 -1446h-100zM805 197v137l180 571h178v-588h78v-120h-78v-197h-131v197h-227zM915 317h117l10 433z" />
<glyph unicode="&#xbd;" horiz-adv-x="1280" d="M53 1229v112h39q123 0 123 95v10h121v-903h-139v686h-144zM209 0l713 1446h92l-705 -1446h-100zM813 0v123l182 309q6 12 21.5 38t20.5 33t15.5 26.5t13.5 27.5t8 24.5t6 30t3 32t2 38.5q0 104 -69 104q-63 0 -64 -96v-127h-129v123q0 229 197 229q86 0 141.5 -58 t55.5 -185q0 -131 -82 -269l-170 -280h264v-123h-416z" />
<glyph unicode="&#xbe;" horiz-adv-x="1280" d="M41 737v97h129v-82q0 -94 70 -95q51 0 66.5 32t15.5 102v40q0 63 -17.5 94t-81.5 31l-51 -2v127q31 -2 45 -2q47 0 70.5 22.5t23.5 90.5q0 53 -2 76.5t-17.5 44t-45.5 20.5q-61 0 -62 -104v-60h-129v80q0 209 195 209q197 0 196 -223q0 -104 -15 -146t-56 -67 q51 -20 67.5 -77.5t16.5 -188.5q0 -94 -52.5 -159t-150.5 -65q-215 0 -215 205zM270 0l713 1446h92l-704 -1446h-101zM805 197v137l180 571h178v-588h78v-120h-78v-197h-131v197h-227zM915 317h117l10 433z" />
<glyph unicode="&#xbf;" horiz-adv-x="811" d="M74 293v47q0 121 18.5 178t83.5 162l45 72q45 72 56.5 110.5t11.5 91.5v107h135v-123q0 -78 -16.5 -138.5t-79.5 -168.5l-17 -29q-27 -47 -38 -71.5t-18 -73.5t-7 -131v-35q0 -70 41 -109t108 -39q137 0 138 160v191h159v-205q0 -109 -32 -174q-35 -68 -112 -101.5 t-159 -33.5q-164 0 -240.5 92t-76.5 221zM268 1206v242h176v-242h-176z" />
<glyph unicode="&#xc0;" horiz-adv-x="811" d="M0 0l311 1446h181l319 -1446h-188l-52 279h-335l-50 -279h-186zM154 1784h223l108 -219h-133zM266 434h275l-142 744z" />
<glyph unicode="&#xc1;" horiz-adv-x="811" d="M0 0l311 1446h181l319 -1446h-188l-52 279h-335l-50 -279h-186zM266 434h275l-142 744zM315 1565l109 219h223l-201 -219h-131z" />
<glyph unicode="&#xc2;" horiz-adv-x="811" d="M0 0l311 1446h181l319 -1446h-188l-52 279h-335l-50 -279h-186zM143 1565l207 219h133l201 -219h-164l-108 123l-119 -123h-150zM266 434h275l-142 744z" />
<glyph unicode="&#xc3;" horiz-adv-x="811" d="M0 0l311 1446h181l319 -1446h-188l-52 279h-335l-50 -279h-186zM147 1575q0 90 58 143q43 41 98 41q53 0 129 -31.5t105 -31.5q55 0 55 61h74q-18 -182 -154 -182q-43 0 -125 31.5t-108 31.5q-20 0 -33 -10t-17 -20.5t-8 -32.5h-74zM266 434h275l-142 744z" />
<glyph unicode="&#xc4;" horiz-adv-x="811" d="M0 0l311 1446h181l319 -1446h-188l-52 279h-335l-50 -279h-186zM139 1565v219h170v-219h-170zM266 434h275l-142 744zM504 1565v219h170v-219h-170z" />
<glyph unicode="&#xc5;" horiz-adv-x="811" d="M0 0l311 1446h181l319 -1446h-188l-52 279h-335l-50 -279h-186zM242 1695.5q0 67.5 49 116t116.5 48.5t115.5 -48.5t48 -116t-48 -115.5t-117 -48q-68 0 -116 48t-48 115.5zM266 434h275l-142 744zM332 1700q0 -31 22.5 -54.5t53 -23.5t52 21.5t21.5 54.5 q0 31 -21.5 52.5t-53.5 21.5q-29 0 -51.5 -20.5t-22.5 -51.5z" />
<glyph unicode="&#xc6;" horiz-adv-x="1280" d="M0 0l510 1446h702v-162h-426v-430h365v-164h-365v-528h453v-162h-631v317h-313l-107 -317h-188zM348 473h260v791z" />
<glyph unicode="&#xc7;" horiz-adv-x="854" d="M90 414v569q0 262 78 367q88 119 285 118q150 0 241 -92q41 -43 58.5 -107.5t17.5 -183.5v-94h-168v137q0 188 -149 189q-135 0 -164 -127q-20 -88 -21 -268v-363q0 -297 35 -356q41 -72 146 -72q45 0 77.5 19.5t48 44t24.5 67.5t10 69.5t1 69.5v109h168v-156 q0 -281 -180 -350q-68 -25 -164 -24l-41 -119q49 20 92 20q59 0 100.5 -35.5t41.5 -95.5q0 -61 -51.5 -121.5t-172.5 -60.5q-72 0 -159 41l26 49q76 -29 113 -29q43 0 81 29t38 74q0 33 -22.5 55.5t-57.5 22.5q-27 0 -62 -27l-43 16l62 183q-94 10 -156.5 55t-89.5 115.5 t-35 129t-8 132.5z" />
<glyph unicode="&#xc8;" horiz-adv-x="811" d="M102 0v1446h637v-162h-456v-430h399v-164h-399v-528h471v-162h-652zM166 1784h223l109 -219h-133z" />
<glyph unicode="&#xc9;" horiz-adv-x="811" d="M102 0v1446h637v-162h-456v-430h399v-164h-399v-528h471v-162h-652zM315 1565l109 219h223l-201 -219h-131z" />
<glyph unicode="&#xca;" horiz-adv-x="811" d="M102 0v1446h637v-162h-456v-430h399v-164h-399v-528h471v-162h-652zM133 1565l207 219h133l201 -219h-164l-109 123l-118 -123h-150z" />
<glyph unicode="&#xcb;" horiz-adv-x="811" d="M102 0v1446h637v-162h-456v-430h399v-164h-399v-528h471v-162h-652zM139 1565v219h170v-219h-170zM504 1565v219h170v-219h-170z" />
<glyph unicode="&#xcc;" horiz-adv-x="382" d="M-47 1784h223l109 -219h-133zM102 0v1446h179v-1446h-179z" />
<glyph unicode="&#xcd;" horiz-adv-x="382" d="M102 0v1446h179v-1446h-179zM104 1565l109 219h223l-200 -219h-132z" />
<glyph unicode="&#xce;" horiz-adv-x="382" d="M-80 1565l207 219h133l201 -219h-164l-109 123l-118 -123h-150zM102 0v1446h179v-1446h-179z" />
<glyph unicode="&#xcf;" horiz-adv-x="382" d="M-74 1565v219h170v-219h-170zM102 0v1446h179v-1446h-179zM291 1565v219h170v-219h-170z" />
<glyph unicode="&#xd0;" horiz-adv-x="894" d="M2 727v131h100v588h306q111 0 184.5 -20.5t115.5 -53.5t63.5 -96.5t27.5 -123.5t6 -163v-569q0 -131 -24.5 -216t-80 -129t-124 -59.5t-173.5 -15.5h-301v727h-100zM283 160h88q55 0 83.5 1t61.5 11t47.5 18.5t30.5 42t20 61.5t9.5 94.5t5.5 123.5v168v229q0 90 -2 139.5 t-10.5 98.5t-22.5 68.5t-44 38t-69 22.5t-100 4h-98v-422h180v-131h-180v-567z" />
<glyph unicode="&#xd1;" horiz-adv-x="894" d="M102 0v1446h248l293 -1266q-20 1075 -25 1266h175v-1446h-254l-283 1253q16 -858 25 -1253h-179zM190 1575q0 90 58 143q43 41 98 41q51 0 129 -31.5t105 -31.5q55 0 55 61h74q-18 -182 -154 -182q-43 0 -125 31.5t-108 31.5q-20 0 -33 -10t-17 -20.5t-8 -32.5h-74z" />
<glyph unicode="&#xd2;" horiz-adv-x="894" d="M90 516v481q0 248 82 353q94 119 293 118q195 0 267.5 -111.5t72.5 -340.5v-410q0 -356 -73 -491t-296 -135q-96 0 -161.5 27.5t-101.5 67.5t-55.5 116.5t-23.5 144t-4 180.5zM209 1784h223l109 -219h-133zM274 444q0 -154 19 -211q35 -104 153 -104q109 0 142 85t33 318 v476q0 63 -1.5 95t-9.5 81t-25.5 72.5t-50 42t-81.5 18.5q-104 0 -141.5 -74t-37.5 -235v-564z" />
<glyph unicode="&#xd3;" horiz-adv-x="894" d="M90 516v481q0 248 82 353q94 119 293 118q195 0 267.5 -111.5t72.5 -340.5v-410q0 -356 -73 -491t-296 -135q-96 0 -161.5 27.5t-101.5 67.5t-55.5 116.5t-23.5 144t-4 180.5zM274 444q0 -154 19 -211q35 -104 153 -104q109 0 142 85t33 318v476q0 63 -1.5 95t-9.5 81 t-25.5 72.5t-50 42t-81.5 18.5q-104 0 -141.5 -74t-37.5 -235v-564zM358 1565l109 219h223l-201 -219h-131z" />
<glyph unicode="&#xd4;" horiz-adv-x="894" d="M90 516v481q0 248 82 353q94 119 293 118q195 0 267.5 -111.5t72.5 -340.5v-410q0 -356 -73 -491t-296 -135q-96 0 -161.5 27.5t-101.5 67.5t-55.5 116.5t-23.5 144t-4 180.5zM176 1565l207 219h133l201 -219h-164l-109 123l-118 -123h-150zM274 444q0 -154 19 -211 q35 -104 153 -104q109 0 142 85t33 318v476q0 63 -1.5 95t-9.5 81t-25.5 72.5t-50 42t-81.5 18.5q-104 0 -141.5 -74t-37.5 -235v-564z" />
<glyph unicode="&#xd5;" horiz-adv-x="894" d="M90 516v481q0 248 82 353q94 119 293 118q195 0 267.5 -111.5t72.5 -340.5v-410q0 -356 -73 -491t-296 -135q-96 0 -161.5 27.5t-101.5 67.5t-55.5 116.5t-23.5 144t-4 180.5zM190 1575q0 90 58 143q43 41 98 41q51 0 129 -31.5t105 -31.5q55 0 55 61h74 q-18 -182 -154 -182q-43 0 -125 31.5t-108 31.5q-20 0 -33 -10t-17 -20.5t-8 -32.5h-74zM274 444q0 -154 19 -211q35 -104 153 -104q109 0 142 85t33 318v476q0 63 -1.5 95t-9.5 81t-25.5 72.5t-50 42t-81.5 18.5q-104 0 -141.5 -74t-37.5 -235v-564z" />
<glyph unicode="&#xd6;" horiz-adv-x="894" d="M90 516v481q0 248 82 353q94 119 293 118q195 0 267.5 -111.5t72.5 -340.5v-410q0 -356 -73 -491t-296 -135q-96 0 -161.5 27.5t-101.5 67.5t-55.5 116.5t-23.5 144t-4 180.5zM182 1565v219h170v-219h-170zM274 444q0 -154 19 -211q35 -104 153 -104q109 0 142 85t33 318 v476q0 63 -1.5 95t-9.5 81t-25.5 72.5t-50 42t-81.5 18.5q-104 0 -141.5 -74t-37.5 -235v-564zM547 1565v219h170v-219h-170z" />
<glyph unicode="&#xd7;" horiz-adv-x="1142" d="M223 854l119 115l238 -244l221 246l104 -103l-225 -247l235 -244l-112 -121l-234 242l-215 -242l-108 98l223 248z" />
<glyph unicode="&#xd8;" horiz-adv-x="894" d="M39 43l76 156q-25 94 -25 317v481q0 248 82 353q94 119 293 118q158 0 244 -82l41 78l73 -39l-57 -116q43 -100 43 -293v-410q0 -354 -75 -490t-298 -136q-195 0 -276 114l-47 -94zM276 334q2 -59 17 -101q35 -106 153 -106q113 0 144 85t35 339v481zM276 516l338 676 q-31 125 -159 125q-102 0 -140.5 -70.5t-38.5 -232.5v-498z" />
<glyph unicode="&#xd9;" horiz-adv-x="894" d="M96 459v987h183v-1096q0 -104 36.5 -159.5t137.5 -55.5q86 0 124.5 43t38.5 160v1108h183v-975q0 -145 -6.5 -208.5t-28.5 -115.5q-72 -168 -315 -167q-246 0 -320 157q-20 47 -26.5 102.5t-6.5 219.5zM209 1784h223l109 -219h-133z" />
<glyph unicode="&#xda;" horiz-adv-x="894" d="M96 459v987h183v-1096q0 -104 36.5 -159.5t137.5 -55.5q86 0 124.5 43t38.5 160v1108h183v-975q0 -145 -6.5 -208.5t-28.5 -115.5q-72 -168 -315 -167q-246 0 -320 157q-20 47 -26.5 102.5t-6.5 219.5zM358 1565l109 219h223l-201 -219h-131z" />
<glyph unicode="&#xdb;" horiz-adv-x="894" d="M96 459v987h183v-1096q0 -104 36.5 -159.5t137.5 -55.5q86 0 124.5 43t38.5 160v1108h183v-975q0 -145 -6.5 -208.5t-28.5 -115.5q-72 -168 -315 -167q-246 0 -320 157q-20 47 -26.5 102.5t-6.5 219.5zM176 1565l207 219h133l201 -219h-164l-109 123l-118 -123h-150z" />
<glyph unicode="&#xdc;" horiz-adv-x="894" d="M96 459v987h183v-1096q0 -104 36.5 -159.5t137.5 -55.5q86 0 124.5 43t38.5 160v1108h183v-975q0 -145 -6.5 -208.5t-28.5 -115.5q-72 -168 -315 -167q-246 0 -320 157q-20 47 -26.5 102.5t-6.5 219.5zM182 1565v219h170v-219h-170zM547 1565v219h170v-219h-170z" />
<glyph unicode="&#xdd;" horiz-adv-x="811" d="M0 1446h190l216 -723l215 723h190l-317 -877v-569h-187v569zM336 1565l108 219h224l-201 -219h-131z" />
<glyph unicode="&#xde;" horiz-adv-x="854" d="M102 0v1446h181v-240h116q137 0 208 -21.5t124 -88.5q68 -88 68 -275v-55q0 -111 -18.5 -187.5t-48.5 -120.5t-80 -67.5t-99 -31t-123 -7.5h-147v-352h-181zM283 512h153q121 0 153 53t32 191q0 88 -5.5 133t-27 85t-65.5 53t-120 13h-120v-528z" />
<glyph unicode="&#xdf;" horiz-adv-x="811" d="M90 0v1145q0 59 9.5 105t36 96.5t89 78t156.5 27.5q84 0 143.5 -25.5t87 -56.5t43 -82t17.5 -77.5t2 -67.5q0 -63 -14.5 -107.5t-44 -67t-50 -30.5t-57.5 -18q133 -31 170 -108t37 -290q0 -197 -10.5 -272.5t-40.5 -130.5q-72 -125 -236 -125q-33 0 -82 8v139 q35 -10 67.5 -10t56.5 8t38 29.5t22.5 42t11.5 66t4 76t1 98.5q0 246 -25.5 317.5t-130.5 71.5q-31 0 -45 -2v147h35q74 0 103.5 29.5t29.5 126.5q0 37 -4 62.5t-16.5 53t-40 43t-70.5 15.5q-80 0 -103.5 -42t-23.5 -124v-1149h-166z" />
<glyph unicode="&#xe0;" d="M39 248q0 94 37 157.5t87 96.5t143 96.5t165 134.5v35q0 143 -125 143q-123 0 -123 -129v-94h-145v60q0 53 2 79.5t14 63.5t37 67q72 84 231 84q133 0 205 -71q66 -66 66 -209v-545q0 -106 8 -150t41 -67h-201v123q-68 -141 -213 -141q-68 0 -123 32q-106 64 -106 234z M137 1374h223l109 -221h-133zM207 250q0 -147 110 -148q68 0 115 60q39 51 39 170v252q-35 -37 -112.5 -90.5t-114.5 -105.5t-37 -138z" />
<glyph unicode="&#xe1;" d="M39 248q0 94 37 157.5t87 96.5t143 96.5t165 134.5v35q0 143 -125 143q-123 0 -123 -129v-94h-145v60q0 53 2 79.5t14 63.5t37 67q72 84 231 84q133 0 205 -71q66 -66 66 -209v-545q0 -106 8 -150t41 -67h-201v123q-68 -141 -213 -141q-68 0 -123 32q-106 64 -106 234z M207 250q0 -147 110 -148q68 0 115 60q39 51 39 170v252q-35 -37 -112.5 -90.5t-114.5 -105.5t-37 -138zM270 1153l109 221h223l-201 -221h-131z" />
<glyph unicode="&#xe2;" d="M39 248q0 94 37 157.5t87 96.5t143 96.5t165 134.5v35q0 143 -125 143q-123 0 -123 -129v-94h-145v60q0 53 2 79.5t14 63.5t37 67q72 84 231 84q133 0 205 -71q66 -66 66 -209v-545q0 -106 8 -150t41 -67h-201v123q-68 -141 -213 -141q-68 0 -123 32q-106 64 -106 234z M100 1153l207 225h135l201 -225h-160l-110 129l-117 -129h-156zM207 250q0 -147 110 -148q68 0 115 60q39 51 39 170v252q-35 -37 -112.5 -90.5t-114.5 -105.5t-37 -138z" />
<glyph unicode="&#xe3;" d="M39 248q0 94 37 157.5t87 96.5t143 96.5t165 134.5v35q0 143 -125 143q-123 0 -123 -129v-94h-145v60q0 53 2 79.5t14 63.5t37 67q72 84 231 84q133 0 205 -71q66 -66 66 -209v-545q0 -106 8 -150t41 -67h-201v123q-68 -141 -213 -141q-68 0 -123 32q-106 64 -106 234z M119 1165q0 82 42 135.5t103 53.5q49 0 124 -32t101 -32q47 0 52 62h73q0 -70 -34.5 -128.5t-108.5 -58.5q-41 0 -120 32t-105 32q-49 0 -53 -64h-74zM207 250q0 -147 110 -148q68 0 115 60q39 51 39 170v252q-35 -37 -112.5 -90.5t-114.5 -105.5t-37 -138z" />
<glyph unicode="&#xe4;" d="M39 248q0 94 37 157.5t87 96.5t143 96.5t165 134.5v35q0 143 -125 143q-123 0 -123 -129v-94h-145v60q0 53 2 79.5t14 63.5t37 67q72 84 231 84q133 0 205 -71q66 -66 66 -209v-545q0 -106 8 -150t41 -67h-201v123q-68 -141 -213 -141q-68 0 -123 32q-106 64 -106 234z M117 1153v211h159v-211h-159zM207 250q0 -147 110 -148q68 0 115 60q39 51 39 170v252q-35 -37 -112.5 -90.5t-114.5 -105.5t-37 -138zM434 1153v211h160v-211h-160z" />
<glyph unicode="&#xe5;" d="M39 248q0 94 37 157.5t87 96.5t143 96.5t165 134.5v35q0 143 -125 143q-123 0 -123 -129v-94h-145v60q0 53 2 79.5t14 63.5t37 67q72 84 231 84q133 0 205 -71q66 -66 66 -209v-545q0 -106 8 -150t41 -67h-201v123q-68 -141 -213 -141q-68 0 -123 32q-106 64 -106 234z M193 1286q0 70 48 118t115 48q76 0 121 -51t45 -115q0 -66 -48 -115t-118 -49q-68 0 -115.5 48t-47.5 116zM207 250q0 -147 110 -148q68 0 115 60q39 51 39 170v252q-35 -37 -112.5 -90.5t-114.5 -105.5t-37 -138zM283 1288q0 -31 22.5 -52.5t53 -21.5t52 21.5t21.5 52.5 t-21.5 53.5t-52.5 22.5q-33 0 -54 -23.5t-21 -52.5z" />
<glyph unicode="&#xe6;" horiz-adv-x="1110" d="M68 236q0 135 63 208q25 29 69 62t127 90t156 115v71q0 129 -114 129q-41 0 -67 -17t-36 -49t-13 -55.5t-3 -60.5v-39h-150v68q0 57 8.5 100t33 88t79.5 70.5t137 25.5q121 0 203 -67q88 68 199 67q92 0 160 -43q51 -33 77.5 -86t31.5 -95t5 -113v-222h-399v-227 q0 -82 37 -116t88 -34q41 0 67.5 18.5t36.5 55.5t12.5 60.5t2.5 64.5v27h155v-43q0 -307 -286 -307q-135 0 -224 96q-57 -53 -101 -74.5t-114 -21.5q-80 0 -133 29.5t-74.5 77.5t-27.5 81t-6 66zM225 252q0 -59 31 -99t88 -40q139 0 139 194v246q-27 -23 -84 -61.5 t-87.5 -64.5t-58.5 -73t-28 -102zM635 616h246v123q0 176 -127 176q-119 0 -119 -174v-125z" />
<glyph unicode="&#xe7;" d="M74 467v121q0 240 58 347t239 107q170 0 227 -82.5t57 -248.5v-58h-155v54q0 53 -3 83.5t-15.5 64.5t-39 48.5t-71.5 14.5q-80 0 -105.5 -58.5t-25.5 -232.5v-273q0 -53 1 -78.5t7 -63.5t19.5 -55.5t39 -31.5t62.5 -14q80 0 105.5 60t25.5 210h155v-27q0 -195 -60 -279.5 t-210 -90.5l-43 -123q49 20 92 20q59 0 100 -35.5t41 -95.5q0 -41 -26 -86q-63 -96 -197 -96q-72 0 -159 41l26 49q76 -29 113 -29q43 0 81 29t38 74q0 33 -22.5 55.5t-57.5 22.5q-27 0 -62 -27l-43 16l62 185q-166 10 -217 127q-37 77 -37 356z" />
<glyph unicode="&#xe8;" d="M74 455v170q0 82 4 136t21.5 112.5t47 91t84 54t129.5 21.5q291 0 291 -313v-246h-413v-114q0 -66 3 -101t15 -75.5t41 -58t76 -17.5q63 0 94 41t31 141v20h153v-41q0 -47 -9 -90t-35.5 -93t-88 -80.5t-151.5 -30.5q-186 0 -256 137q-23 49 -30 102.5t-7 233.5zM135 1374 h223l109 -221h-133zM240 612h258v93q0 68 -6.5 106.5t-36 71t-86.5 32.5q-80 0 -104.5 -55t-24.5 -180v-68z" />
<glyph unicode="&#xe9;" d="M74 455v170q0 82 4 136t21.5 112.5t47 91t84 54t129.5 21.5q291 0 291 -313v-246h-413v-114q0 -66 3 -101t15 -75.5t41 -58t76 -17.5q63 0 94 41t31 141v20h153v-41q0 -47 -9 -90t-35.5 -93t-88 -80.5t-151.5 -30.5q-186 0 -256 137q-23 49 -30 102.5t-7 233.5zM240 612 h258v93q0 68 -6.5 106.5t-36 71t-86.5 32.5q-80 0 -104.5 -55t-24.5 -180v-68zM272 1153l109 221h223l-201 -221h-131z" />
<glyph unicode="&#xea;" d="M74 455v170q0 82 4 136t21.5 112.5t47 91t84 54t129.5 21.5q291 0 291 -313v-246h-413v-114q0 -66 3 -101t15 -75.5t41 -58t76 -17.5q63 0 94 41t31 141v20h153v-41q0 -47 -9 -90t-35.5 -93t-88 -80.5t-151.5 -30.5q-186 0 -256 137q-23 49 -30 102.5t-7 233.5zM100 1153 l207 225h135l201 -225h-160l-110 129l-117 -129h-156zM240 612h258v93q0 68 -6.5 106.5t-36 71t-86.5 32.5q-80 0 -104.5 -55t-24.5 -180v-68z" />
<glyph unicode="&#xeb;" d="M74 455v170q0 82 4 136t21.5 112.5t47 91t84 54t129.5 21.5q291 0 291 -313v-246h-413v-114q0 -66 3 -101t15 -75.5t41 -58t76 -17.5q63 0 94 41t31 141v20h153v-41q0 -47 -9 -90t-35.5 -93t-88 -80.5t-151.5 -30.5q-186 0 -256 137q-23 49 -30 102.5t-7 233.5zM125 1153 v211h160v-211h-160zM240 612h258v93q0 68 -6.5 106.5t-36 71t-86.5 32.5q-80 0 -104.5 -55t-24.5 -180v-68zM442 1153v211h160v-211h-160z" />
<glyph unicode="&#xec;" horiz-adv-x="342" d="M-55 1374h223l108 -221h-133zM90 0v1024h162v-1024h-162z" />
<glyph unicode="&#xed;" horiz-adv-x="342" d="M80 1153l108 221h224l-201 -221h-131zM90 0v1024h162v-1024h-162z" />
<glyph unicode="&#xee;" horiz-adv-x="342" d="M-90 1153l207 225h135l201 -225h-160l-111 129l-116 -129h-156zM90 0v1024h162v-1024h-162z" />
<glyph unicode="&#xef;" horiz-adv-x="342" d="M-66 1153v211h160v-211h-160zM90 0v1024h162v-1024h-162zM252 1153v211h160v-211h-160z" />
<glyph unicode="&#xf0;" d="M74 287v389q0 170 64.5 270.5t191.5 100.5q90 0 162 -86q-29 174 -62 235l-225 -70l-33 95l199 61q-51 61 -127 115l137 57q78 -59 113 -106l14 -21l141 45l35 -98l-115 -35q55 -115 69.5 -217t14.5 -279v-280q0 -100 -2 -154.5t-17.5 -127t-44 -109.5t-84.5 -63.5 t-138 -26.5q-293 0 -293 305zM246 348q0 -135 22.5 -187t87.5 -52q37 0 60.5 17t37 39.5t19.5 72t7 85t1 105.5v238q0 59 -3 96t-14 74.5t-34.5 55t-62.5 17.5q-35 0 -58.5 -13t-36 -31.5t-18.5 -57.5t-7 -68.5t-1 -87.5v-303z" />
<glyph unicode="&#xf1;" horiz-adv-x="768" d="M90 0v1024h156v-94q82 113 221 112q123 0 176 -88q23 -37 29 -84t6 -149v-721h-166v750q0 164 -121 163q-137 0 -137 -198v-715h-164zM137 1165q0 82 42 135.5t104 53.5q49 0 123.5 -32t101.5 -32q47 0 51 62h74q0 -70 -35 -128.5t-109 -58.5q-41 0 -119.5 32t-105.5 32 q-49 0 -53 -64h-74z" />
<glyph unicode="&#xf2;" d="M74 305v338q0 205 60.5 302t236.5 97q78 0 133 -24.5t82.5 -57t43 -85t18.5 -87t3 -86.5v-309q0 -66 -2 -100.5t-9 -92t-25.5 -89t-49 -65.5t-83 -49t-124.5 -15q-284 -1 -284 323zM135 1374h223l109 -221h-133zM246 389q0 -164 18.5 -222t93.5 -58q29 0 50.5 9t35 31.5 t21.5 45t11 66.5t4 77t1 94v291q0 51 -4 84t-31.5 66.5t-78.5 33.5q-74 0 -97.5 -54t-23.5 -177v-287z" />
<glyph unicode="&#xf3;" d="M74 305v338q0 205 60.5 302t236.5 97q78 0 133 -24.5t82.5 -57t43 -85t18.5 -87t3 -86.5v-309q0 -66 -2 -100.5t-9 -92t-25.5 -89t-49 -65.5t-83 -49t-124.5 -15q-284 -1 -284 323zM246 389q0 -164 18.5 -222t93.5 -58q29 0 50.5 9t35 31.5t21.5 45t11 66.5t4 77t1 94 v291q0 51 -4 84t-31.5 66.5t-78.5 33.5q-74 0 -97.5 -54t-23.5 -177v-287zM272 1153l109 221h223l-201 -221h-131z" />
<glyph unicode="&#xf4;" d="M74 305v338q0 205 60.5 302t236.5 97q78 0 133 -24.5t82.5 -57t43 -85t18.5 -87t3 -86.5v-309q0 -66 -2 -100.5t-9 -92t-25.5 -89t-49 -65.5t-83 -49t-124.5 -15q-284 -1 -284 323zM100 1153l207 225h135l201 -225h-160l-110 129l-117 -129h-156zM246 389 q0 -164 18.5 -222t93.5 -58q29 0 50.5 9t35 31.5t21.5 45t11 66.5t4 77t1 94v291q0 51 -4 84t-31.5 66.5t-78.5 33.5q-74 0 -97.5 -54t-23.5 -177v-287z" />
<glyph unicode="&#xf5;" d="M74 305v338q0 205 60.5 302t236.5 97q78 0 133 -24.5t82.5 -57t43 -85t18.5 -87t3 -86.5v-309q0 -66 -2 -100.5t-9 -92t-25.5 -89t-49 -65.5t-83 -49t-124.5 -15q-284 -1 -284 323zM121 1165q0 82 42 135.5t103 53.5q49 0 124 -32t102 -32q47 0 51 62h73 q0 -70 -34.5 -128.5t-108.5 -58.5q-41 0 -120 32t-105 32q-49 0 -53 -64h-74zM246 389q0 -164 18.5 -222t93.5 -58q29 0 50.5 9t35 31.5t21.5 45t11 66.5t4 77t1 94v291q0 51 -4 84t-31.5 66.5t-78.5 33.5q-74 0 -97.5 -54t-23.5 -177v-287z" />
<glyph unicode="&#xf6;" d="M74 305v338q0 205 60.5 302t236.5 97q78 0 133 -24.5t82.5 -57t43 -85t18.5 -87t3 -86.5v-309q0 -66 -2 -100.5t-9 -92t-25.5 -89t-49 -65.5t-83 -49t-124.5 -15q-284 -1 -284 323zM125 1153v211h160v-211h-160zM246 389q0 -164 18.5 -222t93.5 -58q29 0 50.5 9t35 31.5 t21.5 45t11 66.5t4 77t1 94v291q0 51 -4 84t-31.5 66.5t-78.5 33.5q-74 0 -97.5 -54t-23.5 -177v-287zM442 1153v211h160v-211h-160z" />
<glyph unicode="&#xf7;" horiz-adv-x="1144" d="M162 535v149h821v-149h-821zM489 203v209h170v-209h-170zM489 805v209h170v-209h-170z" />
<glyph unicode="&#xf8;" d="M29 25l63 116q-20 68 -20 203v299q0 205 60.5 302t236.5 97q127 0 200 -67l45 72l58 -46l-58 -92q37 -76 37 -245v-246q0 -61 -1 -95t-6 -87.5t-16.5 -83t-33 -67.5t-52 -57.5t-77.5 -32.5t-109 -13q-147 0 -221 84l-43 -86zM244 403l229 402q-12 102 -108 102 q-74 0 -97.5 -54t-23.5 -177v-273zM246 260q4 -80 28.5 -115.5t81.5 -35.5q82 0 102.5 66.5t20.5 246.5v244z" />
<glyph unicode="&#xf9;" horiz-adv-x="768" d="M90 332v692h164v-758q0 -94 39 -128t84 -34q49 0 79.5 24t42 67t14.5 71.5t3 71.5v686h162v-1024h-158v94q-88 -113 -219 -112q-78 0 -133 45q-51 43 -64.5 107.5t-13.5 197.5zM158 1374h223l108 -221h-133z" />
<glyph unicode="&#xfa;" horiz-adv-x="768" d="M90 332v692h164v-758q0 -94 39 -128t84 -34q49 0 79.5 24t42 67t14.5 71.5t3 71.5v686h162v-1024h-158v94q-88 -113 -219 -112q-78 0 -133 45q-51 43 -64.5 107.5t-13.5 197.5zM293 1153l108 221h224l-201 -221h-131z" />
<glyph unicode="&#xfb;" horiz-adv-x="768" d="M90 332v692h164v-758q0 -94 39 -128t84 -34q49 0 79.5 24t42 67t14.5 71.5t3 71.5v686h162v-1024h-158v94q-88 -113 -219 -112q-78 0 -133 45q-51 43 -64.5 107.5t-13.5 197.5zM123 1153l207 225h135l201 -225h-160l-111 129l-116 -129h-156z" />
<glyph unicode="&#xfc;" horiz-adv-x="768" d="M90 332v692h164v-758q0 -94 39 -128t84 -34q49 0 79.5 24t42 67t14.5 71.5t3 71.5v686h162v-1024h-158v94q-88 -113 -219 -112q-78 0 -133 45q-51 43 -64.5 107.5t-13.5 197.5zM152 1153v211h159v-211h-159zM469 1153v211h160v-211h-160z" />
<glyph unicode="&#xfd;" horiz-adv-x="681" d="M12 1024h176l162 -823l131 823h174l-200 -1020q-12 -68 -21.5 -102.5t-33 -88t-58.5 -85.5q-61 -61 -195 -62h-106v141q20 -2 61 -2q33 0 52.5 2.5t49 12.5t45 36.5t15.5 69.5q0 35 -20 125zM252 1153l108 221h224l-201 -221h-131z" />
<glyph unicode="&#xfe;" horiz-adv-x="768" d="M90 -326v1772h162v-520q27 35 47 55t64.5 40.5t97.5 20.5q90 0 149 -55q39 -37 58.5 -99.5t22.5 -117.5t3 -176q0 -410 -41 -490q-61 -123 -192 -122q-125 0 -203 104v-412h-168zM260 315q0 -90 33 -150.5t104 -60.5q43 0 71 21.5t38 62.5t13 70t3 72v381q0 201 -119 200 q-143 0 -143 -254v-342z" />
<glyph unicode="&#xff;" horiz-adv-x="681" d="M12 1024h176l162 -823l131 823h174l-200 -1020q-12 -68 -21.5 -102.5t-33 -88t-58.5 -85.5q-61 -61 -195 -62h-106v141q20 -2 61 -2q33 0 52.5 2.5t49 12.5t45 36.5t15.5 69.5q0 35 -20 125zM104 1153v211h160v-211h-160zM422 1153v211h160v-211h-160z" />
<glyph unicode="&#x152;" horiz-adv-x="1323" d="M90 522v346q0 80 1 125t8 118t20.5 116t41 94t66.5 80t98.5 48t135.5 19q47 0 139 -11t164 -11h496v-162h-429v-430h365v-164h-365v-528h451v-162h-524q-35 0 -149.5 -10t-172.5 -10q-70 0 -123 17t-89 45t-62.5 73t-39.5 88t-20.5 103.5t-9.5 106.5t-2 109zM276 457 q0 -158 39 -240t162 -82q88 0 129 49q31 35 41 104.5t10 217.5v559q0 55 -5 92t-22.5 77t-55 60.5t-97.5 20.5q-115 0 -162 -88q-18 -35 -27 -93.5t-10.5 -109.5t-1.5 -162v-405z" />
<glyph unicode="&#x153;" horiz-adv-x="1110" d="M74 449v235q0 180 67.5 269t220.5 89q109 0 203 -75q90 76 195 75q115 0 195.5 -72.5t80.5 -250.5v-232h-397v-204q0 -78 24.5 -125t100.5 -47q72 0 95.5 52t23.5 171h153q0 -141 -29.5 -211t-91.5 -105q-63 -37 -153 -36q-109 0 -199 84q-84 -84 -219 -84 q-137 0 -209 86q-43 51 -52 129t-9 252zM240 389q0 -158 22.5 -219t95.5 -61q45 0 72 18t39 66.5t14 90.5t2 130v309q0 190 -118 190q-74 0 -100.5 -58t-26.5 -179v-287zM641 621h240v96q0 195 -123 194q-117 0 -117 -166v-124z" />
<glyph unicode="&#x178;" horiz-adv-x="811" d="M0 1446h190l216 -723l215 723h190l-317 -877v-569h-187v569zM141 1565v219h170v-219h-170zM506 1565v219h170v-219h-170z" />
<glyph unicode="&#x2c6;" horiz-adv-x="468" d="M-37 1153l207 225h135l201 -225h-160l-110 129l-117 -129h-156z" />
<glyph unicode="&#x2dc;" horiz-adv-x="468" d="M-12 1165q0 82 42 135.5t103 53.5q49 0 124 -32t101 -32q47 0 52 62h73q0 -70 -34.5 -128.5t-108.5 -58.5q-41 0 -120 32t-105 32q-49 0 -54 -64h-73z" />
<glyph unicode="&#x2000;" horiz-adv-x="929" />
<glyph unicode="&#x2001;" horiz-adv-x="1859" />
<glyph unicode="&#x2002;" horiz-adv-x="929" />
<glyph unicode="&#x2003;" horiz-adv-x="1859" />
<glyph unicode="&#x2004;" horiz-adv-x="618" />
<glyph unicode="&#x2005;" horiz-adv-x="464" />
<glyph unicode="&#x2006;" horiz-adv-x="309" />
<glyph unicode="&#x2007;" horiz-adv-x="309" />
<glyph unicode="&#x2008;" horiz-adv-x="231" />
<glyph unicode="&#x2009;" horiz-adv-x="370" />
<glyph unicode="&#x200a;" horiz-adv-x="102" />
<glyph unicode="&#x2010;" horiz-adv-x="544" d="M51 518v160h443v-160h-443z" />
<glyph unicode="&#x2011;" horiz-adv-x="544" d="M51 518v160h443v-160h-443z" />
<glyph unicode="&#x2012;" horiz-adv-x="544" d="M51 518v160h443v-160h-443z" />
<glyph unicode="&#x2013;" horiz-adv-x="759" d="M51 518v160h658v-160h-658z" />
<glyph unicode="&#x2014;" horiz-adv-x="1161" d="M51 518v160h1059v-160h-1059z" />
<glyph unicode="&#x2018;" horiz-adv-x="342" d="M84 926v248q0 115 37 183t137 89v-105q-78 -20 -78 -120v-54h78v-241h-174z" />
<glyph unicode="&#x2019;" horiz-adv-x="342" d="M84 926v104q45 16 60.5 49t15.5 88v37h-76v242h174v-248q0 -117 -36 -184.5t-138 -87.5z" />
<glyph unicode="&#x201a;" horiz-adv-x="342" d="M84 0v242h174v-250q0 -115 -37 -183.5t-137 -89.5v107q78 18 78 137v37h-78z" />
<glyph unicode="&#x201c;" horiz-adv-x="641" d="M84 926v248q0 115 37 183t137 89v-105q-78 -20 -78 -120v-54h78v-241h-174zM381 926v248q0 115 38 183t138 89v-105q-78 -20 -78 -120v-54h78v-241h-176z" />
<glyph unicode="&#x201d;" horiz-adv-x="641" d="M84 926v104q45 16 60.5 49t15.5 88v37h-76v242h174v-248q0 -117 -36 -184.5t-138 -87.5zM383 926v104q45 16 60.5 49t15.5 88v37h-76v242h174v-248q0 -117 -36 -184.5t-138 -87.5z" />
<glyph unicode="&#x201e;" horiz-adv-x="641" d="M84 0v242h174v-250q0 -117 -36 -184.5t-138 -88.5v105q78 29 78 137v39h-78zM383 0v242h174v-250q0 -117 -36 -184.5t-138 -88.5v105q78 29 78 137v39h-78z" />
<glyph unicode="&#x2022;" horiz-adv-x="698" d="M158 475v510h381v-510h-381z" />
<glyph unicode="&#x2026;" horiz-adv-x="2048" d="M256 0v205h172v-205h-172zM938 0v205h172v-205h-172zM1620 0v205h172v-205h-172z" />
<glyph unicode="&#x202f;" horiz-adv-x="370" />
<glyph unicode="&#x2039;" horiz-adv-x="382" d="M41 487v177l287 319v-238l-152 -170l152 -172v-239z" />
<glyph unicode="&#x203a;" horiz-adv-x="382" d="M57 164v239l152 172l-152 170v238l285 -319v-177z" />
<glyph unicode="&#x205f;" horiz-adv-x="464" />
<glyph unicode="&#x20ac;" horiz-adv-x="888" d="M49 569l25 117h82v100h-105l23 117h84v113q0 223 75 323q98 129 304 129q166 0 288 -92l-47 -180q-63 61 -116.5 91t-126.5 30q-66 0 -108 -22.5t-60.5 -66.5t-24.5 -85t-6 -103v-137h389l-27 -117h-362v-100h342l-25 -117h-319v-96q0 -203 31 -260q43 -82 159 -82 q170 0 293 127v-199q-141 -80 -332 -79q-104 0 -182 48t-115 142q-33 88 -32 244v155h-107z" />
<glyph unicode="&#x2122;" horiz-adv-x="1140" d="M10 1348v98h385v-98h-135v-582h-119v582h-131zM457 766v680h182l111 -541l110 541h187v-680h-119l14 614l-131 -614h-125l-129 606q12 -510 12 -606h-112z" />
<glyph unicode="&#xe000;" horiz-adv-x="1025" d="M0 1025h1025v-1025h-1025v1025z" />
<glyph unicode="&#xfb01;" horiz-adv-x="811" d="M10 901v123h121v158q0 53 7 92t29.5 84t75 69.5t130.5 24.5q53 0 86 -12v-142q-43 12 -66 13q-37 0 -58.5 -14.5t-29.5 -46t-10 -55.5t-2 -69v-102h166v-123h-166v-901h-162v901h-121zM559 0v1024h162v-1024h-162zM559 1204v211h162v-211h-162z" />
<glyph unicode="&#xfb02;" horiz-adv-x="811" d="M10 901v123h121v158q0 53 7 92t29.5 84t75 69.5t130.5 24.5q53 0 86 -12v-142q-43 12 -66 13q-37 0 -58.5 -14.5t-29.5 -46t-10 -55.5t-2 -69v-102h166v-123h-166v-901h-162v901h-121zM557 0v1446h166v-1446h-166z" />
<glyph unicode="&#xfb03;" horiz-adv-x="1280" d="M1028 0v1024h162v-1024h-162zM1028 1204v211h162v-211h-162zM479 901v123h121v158q0 53 7 92t29.5 84t75 69.5t130.5 24.5q53 0 86 -12v-142q-43 12 -66 13q-37 0 -58.5 -14.5t-29.5 -46t-10 -55.5t-2 -69v-102h166v-123h-166v-901h-162v901h-121zM10 901v123h121v158 q0 53 7 92t29.5 84t75 69.5t130.5 24.5q53 0 86 -12v-142q-43 12 -66 13q-37 0 -58.5 -14.5t-29.5 -46t-10 -55.5t-2 -69v-102h166v-123h-166v-901h-162v901h-121z" />
<glyph unicode="&#xfb04;" horiz-adv-x="1280" d="M1026 0v1446h166v-1446h-166zM479 901v123h121v158q0 53 7 92t29.5 84t75 69.5t130.5 24.5q53 0 86 -12v-142q-43 12 -66 13q-37 0 -58.5 -14.5t-29.5 -46t-10 -55.5t-2 -69v-102h166v-123h-166v-901h-162v901h-121zM10 901v123h121v158q0 53 7 92t29.5 84t75 69.5 t130.5 24.5q53 0 86 -12v-142q-43 12 -66 13q-37 0 -58.5 -14.5t-29.5 -46t-10 -55.5t-2 -69v-102h166v-123h-166v-901h-162v901h-121z" />
</font>
</defs>
</svg>
